<svg xmlns="http://www.w3.org/2000/svg" width="37.419" height="30" viewBox="0 0 37.419 30"><defs><style>.a{fill:#b0bcc6;}</style></defs><g transform="translate(0 -50.758)"><g transform="translate(0 50.758)"><g transform="translate(0 0)"><path class="a" d="M27.209,50.758H2.107A2.109,2.109,0,0,0,0,52.865V67.925a2.109,2.109,0,0,0,2.107,2.107H3.735v5.606a.883.883,0,0,0,1.507.624l6.231-6.23h1.25a.883.883,0,0,0,0-1.766s-1.658,0-1.676,0a.879.879,0,0,0-.564.256L5.5,73.507s0-4.414,0-4.437a.882.882,0,0,0-.879-.8H2.107a.342.342,0,0,1-.342-.342V52.865a.342.342,0,0,1,.342-.342h25.1a.342.342,0,0,1,.342.342v5.778a.883.883,0,0,0,1.765,0V52.865A2.109,2.109,0,0,0,27.209,50.758Z" transform="translate(0 -50.758)"/></g></g><g transform="translate(15.634 61.555)"><path class="a" d="M233.6,198.492H216.03a2.109,2.109,0,0,0-2.107,2.107v10.273a2.109,2.109,0,0,0,2.107,2.107h11l4.457,4.457a.883.883,0,0,0,1.507-.624V212.98h.607a2.109,2.109,0,0,0,2.107-2.107V200.6A2.109,2.109,0,0,0,233.6,198.492Zm.342,12.381a.342.342,0,0,1-.342.342h-1.489a.882.882,0,0,0-.879.815c0,.019,0,2.652,0,2.652l-3.205-3.205-.01-.01-.036-.033a.878.878,0,0,0-.581-.219H216.03a.342.342,0,0,1-.342-.342V200.6a.342.342,0,0,1,.342-.342H233.6a.342.342,0,0,1,.342.342Z" transform="translate(-213.923 -198.492)"/></g><g transform="translate(25.644 67.916)"><g transform="translate(0 0)"><path class="a" d="M351.769,285.53a.883.883,0,1,0,.883.883A.883.883,0,0,0,351.769,285.53Z" transform="translate(-350.886 -285.53)"/></g></g><g transform="translate(5.742 56.594)"><g transform="translate(0 0)"><path class="a" d="M95.52,130.611H79.455a.883.883,0,1,0,0,1.765H95.52a.883.883,0,1,0,0-1.765Z" transform="translate(-78.572 -130.611)"/></g></g><g transform="translate(5.742 62.43)"><g transform="translate(0 0)"><path class="a" d="M85.552,210.465h-6.1a.883.883,0,0,0,0,1.765h6.1a.883.883,0,0,0,0-1.765Z" transform="translate(-78.572 -210.465)"/></g></g><g transform="translate(21.542 67.916)"><g transform="translate(0 0)"><path class="a" d="M295.642,285.53a.883.883,0,1,0,.883.883A.883.883,0,0,0,295.642,285.53Z" transform="translate(-294.759 -285.53)"/></g></g><g transform="translate(29.745 67.916)"><g transform="translate(0 0)"><path class="a" d="M407.884,285.53a.883.883,0,1,0,.883.883A.883.883,0,0,0,407.884,285.53Z" transform="translate(-407.001 -285.53)"/></g></g></g></svg>