<svg xmlns="http://www.w3.org/2000/svg" width="24.084" height="31" viewBox="0 0 24.084 31"><defs><style>.a{fill:#b0bcc6;}.b{fill:#ee5d5d;}</style></defs><g transform="translate(-61 1)"><path class="a" d="M62.758,11.426v9.421a2.108,2.108,0,0,1-.621,1.5A3.854,3.854,0,0,0,61,25.091v1.394h7.12a4.395,4.395,0,0,0,8.612,0h7.12V25.091a3.854,3.854,0,0,0-1.136-2.743,2.108,2.108,0,0,1-.621-1.5V11.426A9.681,9.681,0,0,0,73.3,1.8V0H71.547V1.8a9.681,9.681,0,0,0-8.789,9.628Zm9.668,16.816a2.641,2.641,0,0,1-2.486-1.758h4.971A2.64,2.64,0,0,1,72.426,28.242Zm7.91-16.816v9.421a3.854,3.854,0,0,0,1.136,2.743,2.106,2.106,0,0,1,.591,1.136H62.789a2.106,2.106,0,0,1,.591-1.136,3.855,3.855,0,0,0,1.136-2.743V11.426a7.91,7.91,0,1,1,15.82,0Z"/></g><rect class="b" width="10" height="10" rx="5" transform="translate(14.084)"/></svg>