<svg xmlns="http://www.w3.org/2000/svg" width="28.909" height="25" viewBox="0 0 28.909 25"><defs><style>.a{fill:#b0bcc6;}</style></defs><g transform="translate(0 -17.081)"><path class="a" d="M26.907,17.081H2a2,2,0,0,0-2,2v16.9a2,2,0,0,0,2,2H16.524l-.438,2.674a1.156,1.156,0,0,0,1.743,1.256l3.133-1.649a.659.659,0,0,1,.416,0l3.133,1.649a1.4,1.4,0,0,0,.649.169,1.1,1.1,0,0,0,.649-.205,1.215,1.215,0,0,0,.445-1.22l-.438-2.674h1.091a2,2,0,0,0,2-2v-16.9A2,2,0,0,0,26.907,17.081ZM21.17,34.55a3.49,3.49,0,1,1,3.49-3.49A3.494,3.494,0,0,1,21.17,34.55Zm1.007,4.194a2.316,2.316,0,0,0-2.015,0L17.948,39.91l.7-4.3a5.193,5.193,0,0,0,5.037,0l.274,1.675s0,.006,0,.008l.428,2.612Zm5.015-2.765a.29.29,0,0,1-.286.286H25.534l-.313-1.912c0-.008,0-.015,0-.022a5.206,5.206,0,1,0-8.092,0c0,.007,0,.015,0,.022l-.314,1.914H2a.29.29,0,0,1-.286-.286v-16.9A.29.29,0,0,1,2,18.8h24.9a.29.29,0,0,1,.286.286Z"/><path class="a" d="M51.43,60.243H31.977a.858.858,0,1,0,0,1.716H51.43a.858.858,0,0,0,0-1.716Z" transform="translate(-27.558 -38.223)"/><path class="a" d="M40.216,100.911H31.977a.858.858,0,0,0,0,1.716h8.239a.858.858,0,1,0,0-1.716Z" transform="translate(-27.558 -74.238)"/></g></svg>