<svg xmlns="http://www.w3.org/2000/svg" width="14.075" height="11.915" viewBox="0 0 14.075 11.915"><defs><style>.a{fill:#ff7934;}</style></defs><g transform="translate(0 -39.279)"><g transform="translate(7.736 42.409)"><path class="a" d="M284.025,153.145l-2.623,8.306,6.339-8.306Z" transform="translate(-281.402 -153.145)"/></g><g transform="translate(0.03 39.471)"><path class="a" d="M3.1,46.263,1.082,48.68H4.505Z" transform="translate(-1.082 -46.263)"/></g><g transform="translate(10.622 39.471)"><path class="a" d="M387.8,46.263l-1.41,2.417h3.423Z" transform="translate(-386.386 -46.263)"/></g><g transform="translate(0 42.409)"><path class="a" d="M3.716,153.145H0l6.339,8.306Z" transform="translate(0 -153.145)"/></g><g transform="translate(7.667 39.279)"><path class="a" d="M278.906,39.279l2.446,2.446,1.427-2.446Z" transform="translate(-278.906 -39.279)"/></g><g transform="translate(2.535 39.279)"><path class="a" d="M92.232,39.279l1.427,2.446L96.1,39.279Z" transform="translate(-92.232 -39.279)"/></g><g transform="translate(4.263 42.409)"><path class="a" d="M155.076,153.145l2.774,8.785,2.774-8.785Z" transform="translate(-155.076 -153.145)"/></g><g transform="translate(4.537 39.387)"><path class="a" d="M167.541,43.208l-2.5,2.5h5Z" transform="translate(-165.04 -43.208)"/></g></g></svg>