<svg xmlns="http://www.w3.org/2000/svg" width="50" height="50" viewBox="0 0 50 50"><defs><style>.a{fill:rgba(255,121,52,0.19);stroke:rgba(255,121,52,0.3);}.b{fill:#ff7934;}.c{stroke:none;}.d{fill:none;}</style></defs><g transform="translate(-260 -1923)"><g class="a" transform="translate(260 1923)"><circle class="c" cx="25" cy="25" r="25"/><circle class="d" cx="25" cy="25" r="24.5"/></g><g transform="translate(271.25 1935.5)"><path class="b" d="M23.438-1.332H3.737A3.74,3.74,0,0,0,0,2.4V14.461A3.74,3.74,0,0,0,3.723,18.2v5.471L11.586,18.2H23.438a3.74,3.74,0,0,0,3.736-3.736V2.4a3.74,3.74,0,0,0-3.736-3.736Zm2.144,15.793A2.146,2.146,0,0,1,23.438,16.6H11.087L5.315,20.62V16.6H3.737a2.146,2.146,0,0,1-2.144-2.144V2.4A2.146,2.146,0,0,1,3.737.26h19.7A2.146,2.146,0,0,1,25.582,2.4Zm0,0" transform="translate(-0.001 1.332)"/><path class="b" d="M171.293,131.172h12.628v1.592H171.293Zm0,0" transform="translate(-164.02 -125.546)"/><path class="b" d="M171.293,211.172h12.628v1.592H171.293Zm0,0" transform="translate(-164.02 -202.149)"/><path class="b" d="M171.293,291.172h12.628v1.592H171.293Zm0,0" transform="translate(-164.02 -278.753)"/></g></g></svg>