<svg xmlns="http://www.w3.org/2000/svg" width="50" height="50" viewBox="0 0 50 50"><defs><style>.a{fill:rgba(25,175,35,0.19);stroke:rgba(25,175,35,0.3);}.b{fill:#19af23;}.c{stroke:none;}.d{fill:none;}</style></defs><g transform="translate(-260 -1772)"><g class="a" transform="translate(260 1772)"><circle class="c" cx="25" cy="25" r="25"/><circle class="d" cx="25" cy="25" r="24.5"/></g><g transform="translate(270 1782)"><path class="b" d="M15.625,31.25A15.625,15.625,0,1,0,0,15.625,15.659,15.659,0,0,0,15.625,31.25Zm4.635-2.633a14.576,14.576,0,0,0,2.074-3.837h3.6A13.836,13.836,0,0,1,20.26,28.617Zm7.048-5.668H22.926a27.421,27.421,0,0,0,.925-6.409h5.537a13.7,13.7,0,0,1-2.079,6.409Zm0-14.648a13.7,13.7,0,0,1,2.079,6.409H23.851A27.421,27.421,0,0,0,22.926,8.3ZM25.933,6.47h-3.6A14.584,14.584,0,0,0,20.26,2.633,13.84,13.84,0,0,1,25.933,6.47ZM16.541,1.988c1.8.609,3.086,2.746,3.823,4.482H16.541Zm0,6.313h4.482a25.1,25.1,0,0,1,1,6.409H16.541Zm0,8.239h5.478a25.1,25.1,0,0,1-1,6.409H16.541Zm0,8.24h3.823c-.738,1.74-2.028,3.874-3.823,4.483Zm-11.224,0h3.6a14.584,14.584,0,0,0,2.074,3.836A13.839,13.839,0,0,1,5.317,24.78Zm9.392,4.482c-1.8-.608-3.084-2.742-3.823-4.482h3.823Zm0-6.313H10.228a25.1,25.1,0,0,1-1-6.409h5.478Zm0-8.24H9.231a25.1,25.1,0,0,1,1-6.409h4.482Zm0-12.722V6.47H10.887C11.625,4.73,12.914,2.6,14.709,1.988Zm-3.72.646A14.583,14.583,0,0,0,8.916,6.47h-3.6A13.839,13.839,0,0,1,10.99,2.633ZM3.941,8.3H8.324A27.432,27.432,0,0,0,7.4,14.709H1.862A13.706,13.706,0,0,1,3.941,8.3Zm-2.079,8.24H7.4a27.422,27.422,0,0,0,.925,6.409H3.941A13.7,13.7,0,0,1,1.862,16.541Z"/></g></g></svg>