<svg xmlns="http://www.w3.org/2000/svg" width="50" height="50" viewBox="0 0 50 50"><defs><style>.a{fill:rgba(45,171,255,0.19);stroke:rgba(45,171,255,0.3);}.b{fill:#2dabff;}.c{stroke:none;}.d{fill:none;}</style></defs><g transform="translate(-260 -1621)"><g class="a" transform="translate(260 1621)"><circle class="c" cx="25" cy="25" r="25"/><circle class="d" cx="25" cy="25" r="24.5"/></g><path class="b" d="M77.651,24.869a4.855,4.855,0,0,1-1.475-2.009c-1.271-2.691-1.538-6.481-1.538-9.186,0-.012,0-.023,0-.035A8.867,8.867,0,0,0,69.417,5.6V3.481A3.482,3.482,0,0,0,65.942,0h-.288a3.482,3.482,0,0,0-3.475,3.481V5.6a8.867,8.867,0,0,0-5.22,8.077c0,2.706-.267,6.5-1.538,9.186a4.855,4.855,0,0,1-1.475,2.009.89.89,0,0,0-.489,1.012.931.931,0,0,0,.918.716h6.711a4.714,4.714,0,0,0,9.427,0h6.711a.931.931,0,0,0,.918-.716A.89.89,0,0,0,77.651,24.869ZM64.009,3.481a1.648,1.648,0,0,1,1.644-1.647h.288a1.648,1.648,0,0,1,1.644,1.647V5a8.867,8.867,0,0,0-3.577,0V3.481ZM65.8,29.416A2.889,2.889,0,0,1,62.916,26.6H68.68A2.889,2.889,0,0,1,65.8,29.416Zm3.687-4.653H56.46a9.6,9.6,0,0,0,.48-.842c1.227-2.42,1.849-5.867,1.849-10.247a7.008,7.008,0,1,1,14.016,0c0,.011,0,.023,0,.034,0,4.362.626,7.8,1.849,10.21a9.6,9.6,0,0,0,.48.842Z" transform="translate(219.066 1631)"/></g></svg>