<svg xmlns="http://www.w3.org/2000/svg" width="250.692" height="217.26" viewBox="0 0 250.692 217.26"><defs><style>.a{fill:#eff6f9;}</style></defs><g transform="translate(4951.557 9149.148)"><path class="a" d="M159.523,146.563a44.1,44.1,0,1,1,19.349-83.636l25.554-25.554a79.149,79.149,0,1,0,0,130.257l-25.554-25.554a43.817,43.817,0,0,1-19.349,4.522Z" transform="translate(-5031.856 -9113.541)"/><path class="a" d="M117.771,40.16a20.19,20.19,0,1,0,14.289,5.926,20.226,20.226,0,0,0-14.289-5.926Z" transform="translate(-4988.737 -9071.425)"/><path class="a" d="M161.328,6.53A78.764,78.764,0,0,0,116.39,20.551L141.944,46.1a44.1,44.1,0,1,1,0,79.114L116.39,150.773A79.149,79.149,0,1,0,161.328,6.53Z" transform="translate(-4941.437 -9155.678)"/><path class="a" d="M143.26,63.791a20.19,20.19,0,1,0-14.289-5.926A20.225,20.225,0,0,0,143.26,63.791Z" transform="translate(-4924.702 -9113.563)"/></g></svg>