<svg xmlns="http://www.w3.org/2000/svg" width="34.625" height="40" viewBox="0 0 34.625 40"><defs><style>.a{fill:#ff8e31;}</style></defs><g transform="translate(-41.807 -30.769)"><path class="a" d="M57.425,110.673a7.034,7.034,0,1,1-2.839-13.4l1.973-5.419a12.628,12.628,0,1,0,8.774,18.831l-5.419-1.973a6.993,6.993,0,0,1-2.5,1.961Z" transform="translate(0 -46.163)"/><path class="a" d="M83.389,130.436A3.224,3.224,0,1,0,87.671,132,3.224,3.224,0,0,0,83.389,130.436Z" transform="translate(-30.103 -75.315)"/><path class="a" d="M93.29,31.953a12.562,12.562,0,0,0-5.55,5.056l5.419,1.973a7.034,7.034,0,1,1,5.325,11.439l-1.968,5.422a12.625,12.625,0,1,0-3.231-23.89Z" transform="translate(-34.815 0)"/><path class="a" d="M123.184,76.137a3.224,3.224,0,1,0-4.282-1.561A3.224,3.224,0,0,0,123.184,76.137Z" transform="translate(-58.205 -29.727)"/></g></svg>