<svg xmlns="http://www.w3.org/2000/svg" width="28.449" height="27.63" viewBox="0 0 28.449 27.63"><defs><style>.a{fill:#b0bcc6;}</style></defs><g transform="translate(-0.159 24.722) rotate(-81)"><g transform="translate(1.016 0)"><path class="a" d="M24.4,2.709c-.06-.056-.186-.151-.272-.215C22.562,1.313,20.153-.1,17.828.006,13.935.186,8.76,5.44,7.267,7.046S.911,14.2,1.017,18.09a6.562,6.562,0,0,0,.406,2.043,13.358,13.358,0,0,0,2.516,4.039s.171.2.254.279a2.317,2.317,0,0,0,.942.473,2.22,2.22,0,0,0,.6.076,2.406,2.406,0,0,0,.8-.129,2.324,2.324,0,0,0,.9-.538c.144-.155,2.894-3.665,2.909-3.687l.017-.027a2.431,2.431,0,0,0,.339-.591,2.353,2.353,0,0,0,.024-1.65,2.234,2.234,0,0,0-.579-.883L8.849,16.291a1.169,1.169,0,0,1-.265-.4,1.069,1.069,0,0,1-.019-.167l7.522-8.094a.144.144,0,0,1,.049-.034l.03.011a2.8,2.8,0,0,1,.441.344L17.9,9.146a2.335,2.335,0,0,0,2.559.386,2.773,2.773,0,0,0,.616-.43l.058-.047c.027-.023,3.269-2.978,3.391-3.11a2.437,2.437,0,0,0,.505-1.581,2.367,2.367,0,0,0-.286-1.219A2.159,2.159,0,0,0,24.4,2.709Zm-.933,2.229c-.168.165-3.113,2.855-3.268,3l-.12.1a1.274,1.274,0,0,1-.264.19.851.851,0,0,1-.93-.146L17.593,6.883a3.584,3.584,0,0,0-.859-.614,1.541,1.541,0,0,0-.618-.132,1.566,1.566,0,0,0-1.092.5l-7.6,8.176a1.49,1.49,0,0,0-.274,1.345,2.474,2.474,0,0,0,.7,1.2l1.293,1.208a.785.785,0,0,1,.2.308.908.908,0,0,1-.009.628,1,1,0,0,1-.145.243.909.909,0,0,0-.054.076c-.261.336-2.632,3.354-2.77,3.518a1.251,1.251,0,0,1-.349.172,1,1,0,0,1-.289.036.756.756,0,0,1-.19-.018,1.469,1.469,0,0,1-.353-.138c-.047-.047-.128-.145-.142-.162a11.947,11.947,0,0,1-2.252-3.585,5.108,5.108,0,0,1-.321-1.589C2.4,15.393,5.586,11,8.334,8.038s6.9-6.455,9.561-6.577c1.917-.089,3.98,1.158,5.342,2.184l.052.039c.031.023.089.064.115.085a.913.913,0,0,1,.1.134,1.054,1.054,0,0,1,.073.39A2.185,2.185,0,0,1,23.468,4.938Z" transform="translate(-1.015 0)"/></g></g></svg>