<svg xmlns="http://www.w3.org/2000/svg" width="30.163" height="21.1" viewBox="0 0 30.163 21.1"><defs><style>.a{fill:#ff8e31;}</style></defs><g transform="translate(0 -75.4)"><g transform="translate(0 75.4)"><g transform="translate(0 0)"><path class="a" d="M30.157,87.1c-.036-.835-.853-1.5-2.434-1.983a17.341,17.341,0,0,0-4.465-.625V78.08a.65.65,0,0,0-.09-.3c-.168-.727-.98-1.316-2.416-1.749a17.893,17.893,0,0,0-4.976-.631,17.443,17.443,0,0,0-4.928.631c-1.088.337-2.392.962-2.392,2.037a1.107,1.107,0,0,0,.018.2l.066,2.74a7.192,7.192,0,1,0,3.185,12.645,17.773,17.773,0,0,0,3.846.421c.306,1.665,3.912,2.428,7.272,2.428a17.2,17.2,0,0,0,4.928-.643c1.088-.337,2.392-.968,2.392-2.043v-6.6A.727.727,0,0,0,30.157,87.1ZM22,81.4c0,.078-.288.493-1.593.889a17.011,17.011,0,0,1-4.628.583,17.194,17.194,0,0,1-4.093-.451c-.018-.006-.03-.006-.048-.012A6.934,6.934,0,0,0,9.76,81.35l-.042-1.695a6.658,6.658,0,0,0,1.3.5,17.763,17.763,0,0,0,4.766.583,17.923,17.923,0,0,0,4.976-.631,7.208,7.208,0,0,0,1.3-.523v1.575A.345.345,0,0,0,22,81.4ZM11.208,77.191a16.234,16.234,0,0,1,4.567-.583,16.779,16.779,0,0,1,4.628.583c1.3.4,1.593.805,1.593.883s-.294.5-1.6.889a16.982,16.982,0,0,1-4.621.577A16.5,16.5,0,0,1,11.346,79c-1.292-.373-1.653-.781-1.683-.913,0-.012-.006-.012-.006-.012C9.664,77.96,9.94,77.576,11.208,77.191ZM11.226,92.5A5.99,5.99,0,1,1,7.194,82.089a6.121,6.121,0,0,1,1.773.264,6.015,6.015,0,0,1,4.1,4.513,6.285,6.285,0,0,1,.12,1.208A5.955,5.955,0,0,1,11.226,92.5Zm1.526.132a7.257,7.257,0,0,0,1.154-1.977c.511.042,1.04.072,1.593.078v.108l.036,2.037A18.774,18.774,0,0,1,12.753,92.636Zm1.6-5.277c.349.024.715.036,1.088.042l.036,2.127c-.421-.006-.835-.024-1.232-.054a7.388,7.388,0,0,0,.138-1.406C14.387,87.834,14.375,87.6,14.357,87.359Zm1.478-1.154h-.06c-.577,0-1.136-.024-1.653-.06a7.125,7.125,0,0,0-1.076-2.236,21.646,21.646,0,0,0,2.722.174,17.938,17.938,0,0,0,4.982-.631,7.59,7.59,0,0,0,1.3-.517v1.575C19.472,84.583,16.821,85.124,15.836,86.206Zm.793.956a.045.045,0,0,1,.006-.024c.054-.162.481-.559,1.725-.907a16.356,16.356,0,0,1,4.285-.511h.1a16.843,16.843,0,0,1,4.628.571c1.28.385,1.581.781,1.587.871v.006c-.006.09-.306.5-1.641.9a16.694,16.694,0,0,1-4.567.565,16.764,16.764,0,0,1-4.429-.535c-1.292-.373-1.647-.787-1.683-.913Zm10.794,7.554a16.045,16.045,0,0,1-4.573.589,16.354,16.354,0,0,1-4.561-.571c-1.268-.391-1.532-.793-1.532-.883v-.012l-.03-1.743a7.831,7.831,0,0,0,1.5.547,18.5,18.5,0,0,0,4.513.517,17.772,17.772,0,0,0,4.964-.631,7.7,7.7,0,0,0,1.262-.511v1.8h.006C28.967,93.9,28.691,94.319,27.422,94.715Zm1.551-4.423h-.006c0,.06-.036.132-.036.2,0,.084-.282.493-1.581.889a16.628,16.628,0,0,1-4.609.577c-3.329,0-5.571-.751-6.04-1.334l-.006-.5-.024-1.382a7.374,7.374,0,0,0,1.31.5,17.763,17.763,0,0,0,4.766.583,17.988,17.988,0,0,0,4.91-.613,6.883,6.883,0,0,0,1.316-.517Z" transform="translate(0 -75.4)"/></g></g><g transform="translate(4.928 83.147)"><g transform="translate(0 0)"><path class="a" d="M86.453,210.075a2.272,2.272,0,0,0-2.188-1.653,1.067,1.067,0,1,1,1.07-1.064.6.6,0,0,0,1.2,0,2.272,2.272,0,0,0-1.653-2.188v-.27a.6.6,0,0,0-1.2,0v.258a2.268,2.268,0,0,0,.583,4.459,1.067,1.067,0,1,1-1.064,1.07.6.6,0,1,0-1.2,0,2.283,2.283,0,0,0,1.683,2.194v.523a.6.6,0,1,0,1.2,0v-.529A2.267,2.267,0,0,0,86.453,210.075Z" transform="translate(-82 -204.3)"/></g></g></g></svg>