<svg xmlns="http://www.w3.org/2000/svg" width="24.758" height="21.1" viewBox="0 0 24.758 21.1"><defs><style>.a{fill:#19af23;}</style></defs><g transform="translate(0 -37.825)"><g transform="translate(0 37.825)"><path class="a" d="M24.711,52.908a2.174,2.174,0,0,0-1.447-2.046V43.376l1.494-.6-12.4-4.954L0,42.779l5.852,2.345v3.443a3.189,3.189,0,0,0,2.1,2.693,10.1,10.1,0,0,0,4.416.924,10.1,10.1,0,0,0,4.416-.924,3.189,3.189,0,0,0,2.1-2.693V45.131l2.942-1.176v6.907a2.17,2.17,0,0,0-.21,4.005l-1.2,3.6,1.373.458.761-2.282.761,2.282,1.373-.458-1.2-3.6A2.173,2.173,0,0,0,24.711,52.908Zm-7.283-4.341c0,1.025-2.166,2.17-5.064,2.17S7.3,49.592,7.3,48.567V45.7l5.064,2.029,5.065-2.024v2.858Zm-5.064-2.392-8.474-3.4,8.474-3.4,8.5,3.4Zm10.177,7.457a.723.723,0,1,1,.723-.723A.724.724,0,0,1,22.541,53.632Z" transform="translate(0 -37.825)"/></g></g></svg>