<svg xmlns="http://www.w3.org/2000/svg" width="58.692" height="71.826" viewBox="0 0 58.692 71.826"><defs><style>.a{fill:rgba(255,255,255,0.45);}</style></defs><g transform="translate(-2.842)"><g transform="translate(2.842)"><path class="a" d="M52.173,58.112l-4.7-.989a8.957,8.957,0,0,0,2.017-3.235,2.145,2.145,0,0,0,1.336-1.4,1.815,1.815,0,0,0-.573-2.04v-.629c.506-1.53.776-4.03-1.53-5.375a3.1,3.1,0,0,0-2.533-.432c-.1-.259.2-.638.2-.638a1.039,1.039,0,0,0-.929.425,4.432,4.432,0,0,0-2.826-.217c-3.8.8-4.291,5.786-3.6,6.884a1.806,1.806,0,0,0-.543,2.027,2.109,2.109,0,0,0,1.34,1.412,8.71,8.71,0,0,0,1.992,3.23l-4.682.989a2.708,2.708,0,0,0-1.973,2.036L34.544,63.7a1.547,1.547,0,0,0,1.567,1.865h17.1a1.561,1.561,0,0,0,1.234-.55,1.531,1.531,0,0,0,.328-1.315l-.626-3.547A2.693,2.693,0,0,0,52.173,58.112Zm-11.73-4.931a1.285,1.285,0,0,1-1.169-.887c-.143-.578,0-1.116.307-1.2a.362.362,0,0,1,.289.046v-.862l0,0c0-.014,0-.028,0-.046v-.293c.076-.73.767-2.121,4.573-.871A1.914,1.914,0,0,0,46.971,47.9c1.294.143,2.156,1.608,2.477,2.514v.719a.341.341,0,0,1,.143-.049.054.054,0,0,1,0,.025c.014.009.032,0,.058-.025a.252.252,0,0,1,.083,0c.319.085.451.626.314,1.2a1.3,1.3,0,0,1-1.155.892,8.123,8.123,0,0,1-2.406,3.734,4.032,4.032,0,0,1-.437.284,2.665,2.665,0,0,1-.668.27,2.622,2.622,0,0,1-.719.1,2.659,2.659,0,0,1-.726-.1,2.629,2.629,0,0,1-.672-.27,3.589,3.589,0,0,1-.434-.284A7.839,7.839,0,0,1,40.443,53.181Zm2.117,4.541a3.7,3.7,0,0,0,2.1.668,3.661,3.661,0,0,0,2.082-.668l1.123.24a5.045,5.045,0,0,1-6.375-.014Zm-3.124,7.117H36.113a.871.871,0,0,1-.682-.289.842.842,0,0,1-.166-.559h4.171v.848Zm10.087-2.445a.362.362,0,0,0-.365.365v2.073h-9v-2.07A.363.363,0,0,0,39.8,62.4a.359.359,0,0,0-.36.365v.5H35.364l.529-2.979a1.98,1.98,0,0,1,1.4-1.453l3.323-.7a5.763,5.763,0,0,0,8.132.007l3.272.691a1.975,1.975,0,0,1,1.4,1.453l.529,2.983H49.885v-.5A.363.363,0,0,0,49.522,62.394Zm4.37,2.156a.881.881,0,0,1-.682.289H49.887v-.848h4.171A.945.945,0,0,1,53.892,64.55ZM21.571,32.074l-3.434-.723a6.6,6.6,0,0,0,1.477-2.366,1.568,1.568,0,0,0,.975-1.026,1.334,1.334,0,0,0-.416-1.493v-.46a3.135,3.135,0,0,0-1.118-3.928,2.239,2.239,0,0,0-1.851-.314c-.072-.192.146-.469.146-.469a.765.765,0,0,0-.679.31,3.237,3.237,0,0,0-2.066-.157c-2.78.582-3.14,4.229-2.632,5.028a1.333,1.333,0,0,0-.4,1.484,1.559,1.559,0,0,0,.982,1.031,6.539,6.539,0,0,0,1.46,2.364l-3.427.721a1.962,1.962,0,0,0-1.435,1.49l-.467,2.593A1.139,1.139,0,0,0,9.83,37.525h12.5a1.15,1.15,0,0,0,.9-.407,1.13,1.13,0,0,0,.24-.961l-.46-2.59A1.98,1.98,0,0,0,21.571,32.074ZM13,28.467a.937.937,0,0,1-.853-.649c-.1-.421,0-.818.226-.878a.283.283,0,0,1,.213.032v-.883c.051-.534.557-1.548,3.339-.635a1.4,1.4,0,0,0,1.846-.841c.943.1,1.576,1.179,1.812,1.837v.525a.376.376,0,0,1,.106-.039s0,.014,0,.016.025,0,.044-.016a.176.176,0,0,1,.062,0c.231.062.33.458.226.878a.945.945,0,0,1-.843.649A5.978,5.978,0,0,1,17.416,31.2a2.662,2.662,0,0,1-.326.206,2,2,0,0,1-.488.2,1.853,1.853,0,0,1-.529.076,1.94,1.94,0,0,1-.529-.076,2.113,2.113,0,0,1-.492-.2,2.431,2.431,0,0,1-.321-.2A5.771,5.771,0,0,1,13,28.467Zm1.551,3.318a2.654,2.654,0,0,0,3.059,0l.818.173a3.682,3.682,0,0,1-4.656-.009Zm-2.288,5.2H9.828a.641.641,0,0,1-.5-.21.611.611,0,0,1-.122-.409h3.048l0,.619ZM19.63,35.2a.265.265,0,0,0-.263.266v1.518H12.788V35.471a.263.263,0,1,0-.527,0v.367H9.284l.388-2.179A1.436,1.436,0,0,1,10.7,32.6l2.424-.513A4.234,4.234,0,0,0,16.1,33.315a4.179,4.179,0,0,0,2.969-1.222l2.392.506a1.446,1.446,0,0,1,1.028,1.061l.386,2.179H19.9v-.367A.263.263,0,0,0,19.63,35.2Zm3.2,1.576a.64.64,0,0,1-.5.21H19.9v-.619h3.048A.652.652,0,0,1,22.828,36.781ZM35.944,15.17h9.668a.893.893,0,0,0,.7-.312.88.88,0,0,0,.189-.744l-.358-2a1.512,1.512,0,0,0-1.107-1.151L42.377,10.4a4.955,4.955,0,0,0,1.139-1.83,1.216,1.216,0,0,0,.753-.795,1.02,1.02,0,0,0-.326-1.153V6.269a2.421,2.421,0,0,0-.862-3.036,1.74,1.74,0,0,0-1.435-.243c-.058-.148.113-.363.113-.363a.612.612,0,0,0-.529.238,2.5,2.5,0,0,0-1.59-.122C37.481,3.2,37.206,6.013,37.6,6.63a1.041,1.041,0,0,0-.312,1.146,1.226,1.226,0,0,0,.758.8,4.944,4.944,0,0,0,1.13,1.828l-2.65.559a1.516,1.516,0,0,0-1.1,1.153l-.36,2a.879.879,0,0,0,.885,1.054Zm10.05-.575a.505.505,0,0,1-.384.164H43.732v-.478h2.359A.523.523,0,0,1,45.994,14.595Zm-7.6-6.422a.722.722,0,0,1-.659-.5c-.079-.326,0-.631.176-.679a.193.193,0,0,1,.157.025V6.336c.046-.411.437-1.2,2.586-.49a1.08,1.08,0,0,0,1.426-.652c.726.081,1.218.91,1.4,1.421v.4a.337.337,0,0,1,.079-.03s0,.012,0,.012.018,0,.039-.012a.15.15,0,0,1,.049,0c.176.049.25.354.169.679a.722.722,0,0,1-.652.5A4.649,4.649,0,0,1,41.8,10.29a2.6,2.6,0,0,1-.245.159,1.8,1.8,0,0,1-.374.155,1.541,1.541,0,0,1-.414.058,1.491,1.491,0,0,1-.407-.058,1.589,1.589,0,0,1-.384-.155,1.536,1.536,0,0,1-.24-.157A4.454,4.454,0,0,1,38.394,8.173Zm1.2,2.565a2.09,2.09,0,0,0,1.183.374,2.125,2.125,0,0,0,1.188-.377l.631.134a2.841,2.841,0,0,1-3.6-.007Zm-3.769,1.447a1.13,1.13,0,0,1,.795-.82l1.876-.4a3.263,3.263,0,0,0,2.3.95,3.22,3.22,0,0,0,2.295-.945l1.849.391a1.132,1.132,0,0,1,.8.82l.3,1.685h-2.3v-.284a.2.2,0,0,0-.2-.206.208.208,0,0,0-.208.206v1.174H38.236V13.583a.206.206,0,1,0-.411,0v.284h-2.3Zm2,2.1v.478H35.949a.49.49,0,0,1-.384-.164.479.479,0,0,1-.095-.314h2.355Zm6.4,22.93A17.255,17.255,0,0,0,31.45,42.886l-5.638-4.562a12.979,12.979,0,0,0-.679-17.47c3.362-2.542,6.923-5.153,7.7-5.588a9.634,9.634,0,1,0-1.819-5.6A9.6,9.6,0,0,0,32.24,14.29c-1.393.83-5.939,4.245-7.965,5.772a13.014,13.014,0,1,0,.587,19.267l-.335.416,5.712,4.622a17.288,17.288,0,1,0,13.99-7.154ZM32.085,9.673a8.6,8.6,0,1,1,8.6,8.6A8.61,8.61,0,0,1,32.085,9.673ZM15.859,41.541A11.576,11.576,0,1,1,27.431,29.964,11.589,11.589,0,0,1,15.859,41.541Zm28.37,28.377a15.4,15.4,0,1,1,15.4-15.4A15.415,15.415,0,0,1,44.228,69.918Z" transform="translate(-2.842)"/></g></g></svg>