<svg xmlns="http://www.w3.org/2000/svg" xmlns:xlink="http://www.w3.org/1999/xlink" width="70" height="80" viewBox="0 0 70 80"><defs><style>.a{fill:none;}.b{clip-path:url(#a);}.c{fill:#fff;}.d{clip-path:url(#b);}.e{clip-path:url(#c);}.f{clip-path:url(#d);}.g{clip-path:url(#e);}</style><clipPath id="a"><rect class="a" width="6" height="80"/></clipPath><clipPath id="b"><rect class="a" width="6" height="63"/></clipPath><clipPath id="c"><rect class="a" width="6" height="47"/></clipPath><clipPath id="d"><rect class="a" width="6" height="29"/></clipPath><clipPath id="e"><rect class="a" width="6" height="13"/></clipPath></defs><g class="b"><g transform="translate(-1087 -309)"><circle class="c" cx="3" cy="3" r="3" transform="translate(1087 309)"/></g><g transform="translate(-1087 -293)"><circle class="c" cx="3" cy="3" r="3" transform="translate(1087 309)"/></g><g transform="translate(-1087 -277)"><circle class="c" cx="3" cy="3" r="3" transform="translate(1087 309)"/></g><g transform="translate(-1087 -261)"><circle class="c" cx="3" cy="3" r="3" transform="translate(1087 309)"/></g><g transform="translate(-1087 -245)"><circle class="c" cx="3" cy="3" r="3" transform="translate(1087 309)"/></g></g><g class="d" transform="translate(16 8)"><g transform="translate(-1087 -309)"><circle class="c" cx="3" cy="3" r="3" transform="translate(1087 309)"/></g><g transform="translate(-1087 -293)"><circle class="c" cx="3" cy="3" r="3" transform="translate(1087 309)"/></g><g transform="translate(-1087 -277)"><circle class="c" cx="3" cy="3" r="3" transform="translate(1087 309)"/></g><g transform="translate(-1087 -261)"><circle class="c" cx="3" cy="3" r="3" transform="translate(1087 309)"/></g></g><g class="e" transform="translate(32 17)"><g transform="translate(-1087 -309)"><circle class="c" cx="3" cy="3" r="3" transform="translate(1087 309)"/></g><g transform="translate(-1087 -293)"><circle class="c" cx="3" cy="3" r="3" transform="translate(1087 309)"/></g><g transform="translate(-1087 -277)"><circle class="c" cx="3" cy="3" r="3" transform="translate(1087 309)"/></g></g><g class="f" transform="translate(48 25)"><g transform="translate(-1087 -309)"><circle class="c" cx="3" cy="3" r="3" transform="translate(1087 309)"/></g><g transform="translate(-1087 -293)"><circle class="c" cx="3" cy="3" r="3" transform="translate(1087 309)"/></g></g><g class="g" transform="translate(64 34)"><g transform="translate(-1087 -309)"><circle class="c" cx="3" cy="3" r="3" transform="translate(1087 309)"/></g></g></svg>