<svg xmlns="http://www.w3.org/2000/svg" width="100" height="100" viewBox="0 0 100 100"><defs><style>.a{fill:#ff8e31;}</style></defs><path class="a" d="M98.606,31.769,87.5,24.387V6.25A6.26,6.26,0,0,0,81.25,0H18.75A6.26,6.26,0,0,0,12.5,6.25V24.387L1.394,31.769A3.143,3.143,0,0,0,0,34.375V93.75A6.26,6.26,0,0,0,6.25,100h87.5A6.26,6.26,0,0,0,100,93.75V34.375A3.143,3.143,0,0,0,98.606,31.769ZM18.75,6.25h62.5V49.756L50,62.256l-31.25-12.5ZM6.25,36.05l6.25-4.156V47.256l-6.25-2.5Zm87.5,57.7H6.25V51.494L48.837,68.531A3.25,3.25,0,0,0,50,68.75a3.126,3.126,0,0,0,1.162-.225L93.75,51.494Zm0-48.994-6.25,2.5V31.894l6.25,4.156Z"/><g transform="translate(25 12.5)"><path class="a" d="M174.875,64h-43.75a3.125,3.125,0,0,0,0,6.25h43.75a3.125,3.125,0,0,0,0-6.25Z" transform="translate(-128 -64)"/></g><g transform="translate(25 25)"><path class="a" d="M174.875,128h-43.75a3.125,3.125,0,0,0,0,6.25h43.75a3.125,3.125,0,1,0,0-6.25Z" transform="translate(-128 -128)"/></g><g transform="translate(25 37.5)"><path class="a" d="M156.125,192h-25a3.125,3.125,0,0,0,0,6.25h25a3.125,3.125,0,1,0,0-6.25Z" transform="translate(-128 -192)"/></g></svg>