<svg xmlns="http://www.w3.org/2000/svg" width="55" height="55" viewBox="0 0 55 55"><defs><style>.a{fill:#eff6f9;}.b{fill:#231f20;}</style></defs><g transform="translate(-487 -5175)"><circle class="a" cx="27.5" cy="27.5" r="27.5" transform="translate(487 5175)"/><g transform="translate(501 5190.668)"><path class="b" d="M3.172-.668A2.922,2.922,0,1,0,3.1,5.161h.036A2.923,2.923,0,1,0,3.172-.668Zm0,0"/><path class="b" d="M8.109,198.313h5.607v16.868H8.109Zm0,0" transform="translate(-7.778 -190.849)"/><path class="b" d="M231.875,188.625c-3.025,0-5.053,2.842-5.053,2.842v-2.446h-5.607v16.868h5.607v-9.42a3.842,3.842,0,0,1,.185-1.368,3.069,3.069,0,0,1,2.877-2.05c2.029,0,2.84,1.547,2.84,3.815v9.024h5.606v-9.672c0-5.181-2.766-7.592-6.455-7.592Zm0,0" transform="translate(-212.175 -181.557)"/></g></g></svg>